<?xml version="1.0" encoding="UTF-8" standalone="no"?>
<!DOCTYPE svg PUBLIC "-//W3C//DTD SVG 1.1//EN" "http://www.w3.org/Graphics/SVG/1.1/DTD/svg11.dtd">
<svg width="100%" height="100%" viewBox="0 0 513 458" version="1.1" xmlns="http://www.w3.org/2000/svg" xmlns:xlink="http://www.w3.org/1999/xlink" xml:space="preserve" xmlns:serif="http://www.serif.com/" style="fill-rule:evenodd;clip-rule:evenodd;stroke-linejoin:round;stroke-miterlimit:2;">
    <g transform="matrix(1,0,0,1,0.5,-27.1237)">
        <path d="M148.004,379.318C125.635,378.175 126.056,346.712 148.003,345.62C210.171,345.836 374.144,345.678 438.289,345.723C455.833,345.723 470.843,333.783 474.789,316.69L511.213,158.965C513.299,149.935 511.194,140.588 505.439,133.323C499.683,126.058 491.068,121.833 481.8,121.833C455.995,121.833 236.954,120.841 124.761,120.394L106.977,54.406C102.708,38.637 88.317,27.624 71.98,27.624L15.008,27.624C6.72,27.624 0,34.343 0,42.632C0,50.92 6.72,57.64 15.008,57.64L71.98,57.64C74.793,57.64 77.269,59.536 78,62.234L146.302,315.645C134.292,316.081 123.106,320.966 114.624,329.572C105.711,338.617 100.925,350.589 101.146,363.285C101.588,388.675 122.608,409.332 148.004,409.332L169.887,409.332C166.635,416.16 164.809,423.793 164.809,431.845C164.809,460.811 188.373,484.375 217.338,484.375C246.304,484.375 269.868,460.811 269.868,431.845C269.868,423.792 268.041,416.16 264.789,409.332L359.555,409.332C356.305,416.158 354.479,423.787 354.479,431.837C354.479,460.803 378.045,484.367 407.009,484.367C435.975,484.367 459.54,460.802 459.54,431.837C459.54,423.474 457.565,415.566 454.073,408.54C460.012,406.54 464.295,400.938 464.295,394.325C464.295,386.037 457.575,379.318 449.287,379.318L148.004,379.318ZM239.851,431.846C239.851,444.261 229.752,454.36 217.337,454.36C204.923,454.36 194.823,444.261 194.823,431.846C194.823,419.439 204.913,409.343 217.318,409.333L217.356,409.333C229.762,409.343 239.851,419.439 239.851,431.846ZM407.01,454.352C394.597,454.352 384.496,444.252 384.496,431.838C384.496,419.547 394.4,409.531 406.645,409.333L407.376,409.333C419.623,409.531 429.526,419.547 429.526,431.838C429.525,444.252 419.425,454.352 407.01,454.352ZM481.91,151.959C481.999,152.071 481.986,152.124 481.967,152.21L466.62,218.67L414.65,218.67L423.5,151.612L481.68,151.846C481.769,151.848 481.822,151.848 481.91,151.959ZM327.183,315.706L327.183,248.686L380.413,248.686L371.568,315.706L327.183,315.706ZM252.761,315.706L243.845,248.686L297.167,248.686L297.167,315.706L252.761,315.706ZM222.48,315.706L183.625,315.706C179.967,315.705 176.744,313.237 175.792,309.723L159.342,248.686L213.563,248.686L222.48,315.706ZM239.85,218.671L230.825,150.836L297.166,151.103L297.166,218.671L239.85,218.671ZM327.183,218.671L327.183,151.224L393.24,151.49L384.374,218.671L327.183,218.671ZM200.528,150.713L209.569,218.67L151.251,218.67L132.862,150.44L200.528,150.713ZM438.289,315.706L401.843,315.706L410.688,248.686L459.687,248.686L445.543,309.936C444.758,313.333 441.776,315.706 438.289,315.706Z" style="fill:white;fill-rule:nonzero;stroke:white;stroke-width:1px;"/>
    </g>
</svg>
