<?xml version="1.0" standalone="no"?>
<!DOCTYPE svg PUBLIC "-//W3C//DTD SVG 20010904//EN"
 "http://www.w3.org/TR/2001/REC-SVG-20010904/DTD/svg10.dtd">
<svg version="1.0" xmlns="http://www.w3.org/2000/svg"
 width="210.000000pt" height="210.000000pt" viewBox="0 0 210.000000 210.000000"
 preserveAspectRatio="xMidYMid meet">
<metadata>
Created by potrace 1.14, written by Peter Selinger 2001-2017
</metadata>
<g transform="translate(0.000000,210.000000) scale(0.100000,-0.100000)"
fill="#000000" stroke="none">
<path d="M0 1050 l0 -1050 1050 0 1050 0 0 1050 0 1050 -1050 0 -1050 0 0
-1050z m561 534 c20 -19 34 -51 50 -110 l22 -84 411 -1 c226 -1 422 -4 435 -8
13 -3 33 -18 44 -33 l20 -26 -47 -209 c-39 -171 -51 -212 -72 -233 l-24 -25
-370 -3 -370 -3 -6 -26 c-13 -52 -3 -53 392 -53 302 0 364 -2 373 -14 9 -11 9
-20 2 -35 -6 -11 -11 -41 -11 -66 0 -83 -41 -125 -121 -125 -75 0 -130 68
-115 141 l6 29 -108 0 -107 0 0 -56 c0 -50 -3 -58 -33 -85 -26 -24 -41 -29
-82 -29 -41 0 -56 5 -82 29 -30 27 -33 35 -33 85 l0 56 -35 0 c-68 0 -120 51
-120 118 0 37 40 92 73 99 15 3 27 8 27 12 0 5 -99 383 -150 570 l-11 40 -81
3 c-62 2 -83 7 -91 20 -8 12 -7 21 2 32 10 12 33 16 99 16 79 0 88 -2 113 -26z"/>
<path d="M672 1240 l20 -80 69 0 69 0 -6 58 c-12 101 -13 102 -98 102 l-74 0
20 -80z"/>
<path d="M887 1313 c-3 -5 -2 -38 3 -74 5 -35 10 -67 10 -71 0 -5 32 -8 70 -8
l70 0 0 75 c0 71 -1 75 -22 75 -13 0 -46 3 -74 6 -29 4 -54 2 -57 -3z"/>
<path d="M1178 1312 l-68 -3 0 -74 0 -75 64 0 65 0 6 48 c3 26 9 59 11 74 3
14 2 28 -3 30 -4 1 -38 2 -75 0z"/>
<path d="M1326 1263 c-4 -27 -9 -61 -12 -76 l-6 -28 63 3 63 3 17 73 16 72
-67 0 -68 0 -6 -47z"/>
<path d="M720 1073 c0 -5 8 -39 17 -76 19 -73 30 -82 89 -75 28 3 29 5 27 48
-2 25 -5 60 -8 78 -6 32 -6 32 -65 32 -33 0 -60 -3 -60 -7z"/>
<path d="M917 1038 c14 -114 14 -113 68 -113 l50 0 3 78 3 77 -65 0 -64 0 5
-42z"/>
<path d="M1112 1003 l3 -78 44 0 c50 0 52 4 64 103 l6 52 -60 0 -60 0 3 -77z"/>
<path d="M1292 1008 c-6 -39 -9 -75 -6 -80 8 -12 82 -10 90 3 3 6 15 42 24 80
l18 69 -58 0 -58 0 -10 -72z"/>
<path d="M816 684 c-19 -18 -21 -55 -4 -72 15 -15 61 -15 76 0 28 28 2 88 -38
88 -10 0 -26 -7 -34 -16z"/>
<path d="M1255 680 c-27 -29 -10 -74 28 -78 36 -4 57 13 57 47 0 51 -50 69
-85 31z"/>
</g>
</svg>
